# xmcd
#
# Track frame offsets: 
#        150
#        12257
#        21257
#        38964
#        50764
#        59984
#        67600
#        87943
#        93355
#        102679
#
# Disc length: 1590 seconds
#
# Revision: 0
# Processed by: cddbd v1.5.2PL0 Copyright (c) Steve Scherf et al.
# Submitted via: ExactAudioCopy v1.0b1
#
DISCID=8706340a
DTITLE=Michael Tarbox - My Primitive Joy
DYEAR=2009
DGENRE=Blues
TTITLE0=At Dusk
TTITLE1=November Song
TTITLE2=My Primitive Joy
TTITLE3=Beautiful Girl
TTITLE4=Whose Fault But Mine?
TTITLE5=Let me Know How To Find You
TTITLE6=Whose Face?
TTITLE7=Darkness Is A Rider
TTITLE8=Who is My Brother?
TTITLE9=Have You Been To The City?
EXTD=
EXTT0=
EXTT1=
EXTT2=
EXTT3=
EXTT4=
EXTT5=
EXTT6=
EXTT7=
EXTT8=
EXTT9=
PLAYORDER=
